<?xml version="1.0" encoding="utf-8"?>
<!-- Generator: Adobe Illustrator 26.0.3, SVG Export Plug-In . SVG Version: 6.00 Build 0)  -->
<svg version="1.1" xmlns="http://www.w3.org/2000/svg" xmlns:xlink="http://www.w3.org/1999/xlink" x="0px" y="0px"
	 viewBox="0 0 423.25 392.32" style="enable-background:new 0 0 423.25 392.32;" xml:space="preserve">
<style type="text/css">
	.st0{display:none;}
	.st1{display:inline;fill:none;stroke:#000000;stroke-miterlimit:10;}
	.st2{fill:none;stroke:#000000;stroke-width:6;stroke-miterlimit:10;}
</style>
<g id="Layer_3" class="st0">
	<path class="st1" d="M11.64,201.08c0,13.04,2.06,167.49,1.37,179.16c22.65,1.37,363.13,0.69,392.64,1.37
		c0.69-17.16,2.75-177.1,1.37-209.36c-12.28-10.94-19.69-24.04-28.85-33.01C317,79.37,329.32,54.82,259.73,128.83
		c-19.4-31.92-32.54-58.25-45.54-59.35c-26.9-2.26-33.48,47.99-94.1,111.54C75.37,155.98,77.95,119.23,11.64,201.08z"/>
</g>
<g id="Layer_2">
	<path class="st2" d="M11.75,214.16c0.38,36.82,1.6,135.52,1.38,160.81c-0.03,2.96,2.32,5.39,5.28,5.46
		c47.07,1.08,332.39,0.58,381.95,1.11c2.96,0.03,5.38-2.31,5.45-5.27c0.7-28.84,2.1-141.21,1.56-188.51
		c-0.1-9.13-3.45-17.92-9.44-24.82c-7.36-8.47-13.09-17.18-19.76-23.7c-59.7-58.43-49.41-83.22-113.55-15.6
		c-2.47,2.61-6.75,2.14-8.6-0.95c-17.41-29.09-29.69-52.19-41.85-53.21c-26.45-2.22-33.25,46.32-91.11,108.37
		c-1.75,1.88-4.59,2.3-6.78,0.97c-38.93-23.71-40.24-54.21-96.06,11.86C14.69,197.25,11.66,205.57,11.75,214.16z"/>
	<path class="st2" d="M256.04,122.7c18.88,32.29,96.45,129.06,122.89,144.28"/>
	<path class="st2" d="M407.3,248.84c-26.26,23.87-92.14,50.61-172.35,34.37c-75.43-23.87-173.78-32.46-221.52-11.46"/>
	<path class="st2" d="M12.48,284.65c52.52,10.5,211.49,39.63,288.36,30.08c25.3-5.73,71.61-5.73,105.03-3.82"/>
	<path class="st2" d="M406.34,336.69c-47.74-8.59-62.06,20.53-100.26,18.14c-47.74,0-67.79-22.44-117.44-21.96
		c-55.38,2.39-93.57,42.01-174.73-8.12"/>
	<g>
		<g>
			<path d="M201.77,96.16c-1.91,2.86-3.82,5.73-5.73,8.59c-1.08,1.62-0.32,3.99,1.29,4.93c1.77,1.03,3.84,0.33,4.93-1.29
				c1.91-2.86,3.82-5.73,5.73-8.59c1.08-1.62,0.32-3.99-1.29-4.93C204.93,93.84,202.85,94.54,201.77,96.16L201.77,96.16z"/>
		</g>
	</g>
	<g>
		<g>
			<path d="M189.66,116.39c-9.68,15.26-19.9,32.03-33.39,44.22c-3.11,2.81,1.5,7.4,4.6,4.6c8.47-7.65,15.22-17.44,21.77-26.73
				c4.35-6.17,8.59-12.43,12.64-18.81C197.52,116.13,191.89,112.87,189.66,116.39L189.66,116.39z"/>
		</g>
	</g>
	<circle class="st2" cx="372.19" cy="51.27" r="15.47"/>
	<g>
		<g>
			<path d="M368.79,80.38c0.02,5.03,0.05,10.05,0.07,15.08c0.02,3.86,6.02,3.87,6,0c-0.02-5.03-0.05-10.05-0.07-15.08
				C374.78,76.52,368.78,76.51,368.79,80.38L368.79,80.38z"/>
		</g>
	</g>
	<g>
		<g>
			<path d="M368.67,8.81c0.02,5.03,0.05,10.05,0.07,15.08c0.02,3.86,6.02,3.87,6,0c-0.02-5.03-0.05-10.05-0.07-15.08
				C374.66,4.95,368.66,4.94,368.67,8.81L368.67,8.81z"/>
		</g>
	</g>
	<g>
		<g>
			<path d="M400.75,19.12c-3.55,3.55-7.11,7.11-10.66,10.66c-2.73,2.73,1.51,6.98,4.24,4.24c3.55-3.55,7.11-7.11,10.66-10.66
				C407.72,20.62,403.48,16.38,400.75,19.12L400.75,19.12z"/>
		</g>
	</g>
	<g>
		<g>
			<path d="M415.68,49.64c-5.03,0-10.05,0-15.08,0c-3.86,0-3.87,6,0,6c5.03,0,10.05,0,15.08,0
				C419.54,55.64,419.55,49.64,415.68,49.64L415.68,49.64z"/>
		</g>
	</g>
	<g>
		<g>
			<path d="M405.15,80.6c-3.55-3.55-7.11-7.11-10.66-10.66c-2.73-2.73-6.98,1.51-4.24,4.24c3.55,3.55,7.11,7.11,10.66,10.66
				C403.64,87.58,407.88,83.34,405.15,80.6L405.15,80.6z"/>
		</g>
	</g>
	<g>
		<g>
			<path d="M343.61,84.57c3.55-3.55,7.11-7.11,10.66-10.66c2.73-2.73-1.51-6.98-4.24-4.24c-3.55,3.55-7.11,7.11-10.66,10.66
				C336.64,83.06,340.88,87.31,343.61,84.57L343.61,84.57z"/>
		</g>
	</g>
	<g>
		<g>
			<path d="M328.83,55.37c5.03,0,10.05,0,15.08,0c3.86,0,3.87-6,0-6c-5.03,0-10.05,0-15.08,0
				C324.97,49.37,324.97,55.37,328.83,55.37L328.83,55.37z"/>
		</g>
	</g>
	<g>
		<g>
			<path d="M354.69,30.01c-3.55-3.55-7.11-7.11-10.66-10.66c-2.73-2.73-6.98,1.51-4.24,4.24c3.55,3.55,7.11,7.11,10.66,10.66
				C353.18,36.98,357.42,32.74,354.69,30.01L354.69,30.01z"/>
		</g>
	</g>
</g>
</svg>
